<svg width="102" height="195" viewBox="0 0 102 195" fill="none" xmlns="http://www.w3.org/2000/svg">
<path d="M102 97.5C102 151.072 58.5716 194.5 5 194.5C-48.5716 194.5 -92 151.072 -92 97.5C-92 43.9284 -48.5716 0.5 5 0.5C58.5716 0.5 102 43.9284 102 97.5Z" fill="#D4D8FF"/>
<path d="M60.5631 97.4999C60.5631 128.187 35.6867 153.063 5 153.063C-25.6867 153.063 -50.5631 128.187 -50.5631 97.4999C-50.5631 66.8132 -25.6867 41.9368 5 41.9368C35.6867 41.9368 60.5631 66.8132 60.5631 97.4999Z" fill="#717FFF"/>
<path d="M32.3107 97.4999C32.3107 112.583 20.0833 124.811 4.99998 124.811C-10.0833 124.811 -22.3107 112.583 -22.3107 97.4999C-22.3107 82.4166 -10.0833 70.1892 4.99998 70.1892C20.0833 70.1892 32.3107 82.4166 32.3107 97.4999Z" fill="#3A4BE2"/>
</svg>
