<svg width="293" height="51" viewBox="0 0 293 51" fill="none" xmlns="http://www.w3.org/2000/svg">
<mask id="mask0_43_363" style="mask-type:luminance" maskUnits="userSpaceOnUse" x="0" y="0" width="293" height="51">
<path fill-rule="evenodd" clip-rule="evenodd" d="M0 4C0 1.79083 1.79086 0 4 0H289C291.209 0 293 1.79083 293 4V47C293 49.2091 291.209 51 289 51H3.99999C1.79085 51 0 49.2091 0 47V4Z" fill="white"/>
</mask>
<g mask="url(#mask0_43_363)">
<path d="M4 3H289V-3H4V3ZM290 4V47H296V4H290ZM289 48H3.99999V54H289V48ZM3 47V4H-3V47H3ZM3.99999 48C3.44771 48 3 47.5523 3 47H-3C-3 50.866 0.13399 54 3.99999 54V48ZM290 47C290 47.5523 289.552 48 289 48V54C292.866 54 296 50.866 296 47H290ZM289 3C289.552 3 290 3.44771 290 4H296C296 0.134014 292.866 -3 289 -3V3ZM4 -3C0.134007 -3 -3 0.134007 -3 4H3C3 3.44772 3.44771 3 4 3V-3Z" fill="#3A4BE2"/>
</g>
<path d="M114 0H289C291.209 0 293 1.79086 293 4V47C293 49.2091 291.209 51 289 51H114V0Z" fill="#3A4BE2"/>
<path d="M27.2281 12.8408V38.0001H21.1629V12.8408H27.2281ZM34.7966 12.8408V17.5236H13.7672V12.8408H34.7966ZM44.5942 38.3457C43.0736 38.3457 41.7143 38.1095 40.5162 37.6372C39.3182 37.1534 38.3044 36.491 37.475 35.6501C36.6571 34.8091 36.0293 33.8415 35.5915 32.7471C35.1653 31.6527 34.9522 30.4949 34.9522 29.2738V28.6172C34.9522 27.2464 35.1422 25.9792 35.5224 24.8157C35.9025 23.6407 36.467 22.6154 37.2158 21.7399C37.9646 20.8644 38.9035 20.1847 40.0324 19.7009C41.1613 19.2055 42.4746 18.9578 43.9722 18.9578C45.297 18.9578 46.4835 19.171 47.5318 19.5972C48.5801 20.0234 49.4671 20.634 50.1929 21.4289C50.9301 22.2237 51.4889 23.1856 51.869 24.3146C52.2607 25.4435 52.4565 26.7107 52.4565 28.1161V30.4834H37.1812V26.8374H46.7715V26.3881C46.783 25.7661 46.6736 25.2361 46.4432 24.7984C46.2243 24.3606 45.9017 24.0266 45.4755 23.7962C45.0493 23.5658 44.5309 23.4506 43.9203 23.4506C43.2868 23.4506 42.7626 23.5888 42.3479 23.8653C41.9447 24.1418 41.6279 24.5219 41.3975 25.0058C41.1786 25.4781 41.0231 26.0253 40.9309 26.6473C40.8388 27.2694 40.7927 27.926 40.7927 28.6172V29.2738C40.7927 29.965 40.8849 30.5929 41.0692 31.1573C41.265 31.7218 41.5415 32.2056 41.8986 32.6088C42.2672 33.0005 42.705 33.3058 43.2119 33.5247C43.7303 33.7435 44.3178 33.853 44.9744 33.853C45.7693 33.853 46.5526 33.7032 47.3244 33.4037C48.0963 33.1042 48.7587 32.6088 49.3116 31.9176L51.9554 35.0626C51.5753 35.604 51.0338 36.1281 50.3311 36.635C49.6399 37.1419 48.8105 37.5566 47.8428 37.8792C46.8752 38.1902 45.7923 38.3457 44.5942 38.3457ZM64.6215 32.7471C64.6215 32.4245 64.512 32.148 64.2931 31.9176C64.0858 31.6757 63.7171 31.4569 63.1872 31.261C62.6573 31.0537 61.9143 30.8463 60.9582 30.6389C60.0481 30.4431 59.1899 30.1839 58.3835 29.8614C57.5886 29.5388 56.8917 29.1471 56.2926 28.6863C55.6936 28.2255 55.2213 27.6784 54.8757 27.0448C54.5416 26.4112 54.3746 25.6854 54.3746 24.8675C54.3746 24.0726 54.5416 23.3239 54.8757 22.6212C55.2213 21.9069 55.7224 21.2791 56.379 20.7377C57.0472 20.1847 57.8593 19.7527 58.8155 19.4417C59.7716 19.1191 60.8602 18.9578 62.0813 18.9578C63.7632 18.9578 65.2147 19.217 66.4358 19.7354C67.6569 20.2423 68.5958 20.9565 69.2524 21.8781C69.9206 22.7882 70.2546 23.8423 70.2546 25.0403H64.4314C64.4314 24.568 64.3507 24.1648 64.1895 23.8307C64.0397 23.4967 63.792 23.2432 63.4464 23.0704C63.1008 22.8861 62.64 22.7939 62.0641 22.7939C61.6609 22.7939 61.2922 22.8688 60.9582 23.0186C60.6356 23.1683 60.3764 23.3757 60.1806 23.6407C59.9847 23.9056 59.8868 24.2166 59.8868 24.5738C59.8868 24.8272 59.9444 25.0576 60.0596 25.2649C60.1863 25.4608 60.3764 25.6451 60.6298 25.8179C60.8833 25.9792 61.2058 26.1289 61.5975 26.2672C61.9892 26.3939 62.4615 26.5091 63.0144 26.6128C64.2701 26.8432 65.4451 27.1715 66.5395 27.5977C67.6339 28.0239 68.5209 28.6287 69.2006 29.4121C69.8918 30.1954 70.2374 31.2495 70.2374 32.5743C70.2374 33.4037 70.0473 34.1698 69.6671 34.8725C69.287 35.5637 68.7398 36.1742 68.0256 36.7041C67.3113 37.2225 66.4531 37.6257 65.4509 37.9137C64.4487 38.2017 63.3197 38.3457 62.0641 38.3457C60.2785 38.3457 58.7694 38.0289 57.5368 37.3953C56.3041 36.7502 55.371 35.9438 54.7374 34.9762C54.1154 33.997 53.8043 33.0063 53.8043 32.004H59.2302C59.2532 32.58 59.3915 33.0523 59.6449 33.421C59.9099 33.7896 60.2612 34.0603 60.699 34.2331C61.1367 34.4059 61.6436 34.4923 62.2196 34.4923C62.7495 34.4923 63.1872 34.4174 63.5328 34.2677C63.8899 34.1179 64.1607 33.9163 64.345 33.6629C64.5293 33.3979 64.6215 33.0927 64.6215 32.7471ZM79.1191 11.4584V38.0001H73.2786V11.4584H79.1191ZM92.4245 33.3V25.5933C92.4245 25.0634 92.3497 24.6083 92.1999 24.2282C92.0501 23.848 91.814 23.5543 91.4914 23.3469C91.1689 23.128 90.7369 23.0186 90.1955 23.0186C89.7577 23.0186 89.3833 23.0935 89.0723 23.2432C88.7612 23.393 88.5251 23.6176 88.3638 23.9171C88.2025 24.2166 88.1219 24.5968 88.1219 25.0576H82.2986C82.2986 24.1936 82.4887 23.393 82.8689 22.6557C83.2605 21.9069 83.8135 21.2561 84.5277 20.7031C85.2535 20.1501 86.1174 19.7239 87.1197 19.4244C88.1334 19.1134 89.2624 18.9578 90.5065 18.9578C91.9926 18.9578 93.3173 19.2055 94.4808 19.7009C95.6559 20.1962 96.5832 20.9393 97.2629 21.93C97.9425 22.9091 98.2824 24.1418 98.2824 25.6278V33.2827C98.2824 34.5038 98.3515 35.4312 98.4897 36.0648C98.628 36.6869 98.8238 37.234 99.0772 37.7064V38.0001H93.2367C92.9602 37.4241 92.7529 36.7214 92.6146 35.892C92.4879 35.051 92.4245 34.187 92.4245 33.3ZM93.133 26.5782L93.1676 29.6886H90.5929C90.0515 29.6886 89.5907 29.7634 89.2105 29.9132C88.8419 30.063 88.5424 30.2703 88.312 30.5353C88.0931 30.7887 87.9318 31.0767 87.8281 31.3993C87.736 31.7218 87.6899 32.0616 87.6899 32.4188C87.6899 32.7644 87.7705 33.0754 87.9318 33.3519C88.1046 33.6168 88.335 33.8242 88.623 33.9739C88.911 34.1237 89.2336 34.1986 89.5907 34.1986C90.2358 34.1986 90.783 34.0776 91.2322 33.8357C91.693 33.5823 92.0444 33.277 92.2863 32.9199C92.5282 32.5628 92.6492 32.2287 92.6492 31.9176L93.9279 34.3022C93.6975 34.763 93.4325 35.2296 93.133 35.7019C92.845 36.1742 92.4821 36.612 92.0444 37.0152C91.6182 37.4068 91.094 37.7294 90.4719 37.9828C89.8499 38.2247 89.0953 38.3457 88.2083 38.3457C87.0563 38.3457 85.9965 38.1095 85.0288 37.6372C84.0727 37.1649 83.3066 36.5083 82.7306 35.6673C82.1546 34.8149 81.8666 33.8357 81.8666 32.7298C81.8666 31.7621 82.0394 30.8981 82.385 30.1378C82.7421 29.3775 83.2778 28.7324 83.992 28.2025C84.7063 27.6726 85.6163 27.2694 86.7222 26.9929C87.8281 26.7164 89.1299 26.5782 90.6274 26.5782H93.133Z" fill="black"/>
<path d="M130.182 11.4584H135.159V33.7147L134.658 38.0001H130.182V11.4584ZM146.995 28.4617V28.8246C146.995 30.2185 146.846 31.4972 146.546 32.6607C146.258 33.8242 145.809 34.8322 145.198 35.6846C144.588 36.5256 143.827 37.1822 142.917 37.6545C142.019 38.1153 140.959 38.3457 139.738 38.3457C138.597 38.3457 137.607 38.1153 136.766 37.6545C135.936 37.1937 135.239 36.5429 134.675 35.7019C134.11 34.861 133.655 33.876 133.31 32.7471C132.964 31.6181 132.705 30.3855 132.532 29.0492V28.2543C132.705 26.918 132.964 25.6854 133.31 24.5565C133.655 23.4275 134.11 22.4426 134.675 21.6016C135.239 20.7607 135.936 20.1098 136.766 19.649C137.595 19.1882 138.574 18.9578 139.703 18.9578C140.936 18.9578 142.007 19.194 142.917 19.6663C143.839 20.1271 144.599 20.7837 145.198 21.6362C145.809 22.4772 146.258 23.4794 146.546 24.6429C146.846 25.7949 146.995 27.0678 146.995 28.4617ZM142.019 28.8246V28.4617C142.019 27.7014 141.961 26.9872 141.846 26.319C141.742 25.6393 141.558 25.0461 141.293 24.5392C141.028 24.0208 140.665 23.6119 140.204 23.3123C139.755 23.0128 139.173 22.8631 138.459 22.8631C137.779 22.8631 137.203 22.9783 136.731 23.2087C136.259 23.4391 135.867 23.7616 135.556 24.1763C135.257 24.591 135.032 25.0864 134.882 25.6624C134.732 26.2269 134.64 26.8489 134.606 27.5286V29.7922C134.64 30.7023 134.79 31.5087 135.055 32.2114C135.331 32.9026 135.746 33.4498 136.299 33.853C136.864 34.2446 137.595 34.4405 138.494 34.4405C139.196 34.4405 139.778 34.3022 140.239 34.0258C140.7 33.7493 141.057 33.3576 141.31 32.8508C141.575 32.3439 141.76 31.7506 141.863 31.0709C141.967 30.3797 142.019 29.631 142.019 28.8246ZM155.065 23.3815V38.0001H150.088V19.3034H154.771L155.065 23.3815ZM160.698 19.1825L160.612 23.7962C160.37 23.7616 160.076 23.7328 159.73 23.7098C159.396 23.6752 159.091 23.6579 158.815 23.6579C158.112 23.6579 157.501 23.7501 156.983 23.9344C156.476 24.1072 156.05 24.3664 155.704 24.712C155.37 25.0576 155.117 25.4781 154.944 25.9734C154.783 26.4688 154.691 27.0332 154.668 27.6668L153.665 27.3558C153.665 26.1462 153.786 25.0346 154.028 24.0208C154.27 22.9955 154.621 22.1028 155.082 21.3425C155.555 20.5821 156.131 19.9946 156.81 19.5799C157.49 19.1652 158.267 18.9578 159.143 18.9578C159.419 18.9578 159.702 18.9809 159.99 19.027C160.278 19.0615 160.514 19.1134 160.698 19.1825ZM172.552 33.7839V25.455C172.552 24.856 172.454 24.3434 172.258 23.9171C172.062 23.4794 171.757 23.1395 171.342 22.8976C170.939 22.6557 170.415 22.5348 169.77 22.5348C169.217 22.5348 168.739 22.6327 168.336 22.8285C167.933 23.0128 167.622 23.2835 167.403 23.6407C167.184 23.9862 167.074 24.3952 167.074 24.8675H162.098C162.098 24.0726 162.282 23.3181 162.651 22.6039C163.019 21.8896 163.555 21.2618 164.258 20.7204C164.96 20.1674 165.796 19.7354 166.763 19.4244C167.743 19.1134 168.837 18.9578 170.046 18.9578C171.498 18.9578 172.788 19.1998 173.917 19.6836C175.046 20.1674 175.933 20.8932 176.578 21.8608C177.235 22.8285 177.563 24.0381 177.563 25.4896V33.4901C177.563 34.5154 177.627 35.3563 177.753 36.0129C177.88 36.658 178.064 37.2225 178.306 37.7064V38.0001H173.278C173.036 37.4932 172.852 36.8596 172.725 36.0993C172.61 35.3275 172.552 34.5557 172.552 33.7839ZM173.209 26.6128L173.243 29.4294H170.461C169.805 29.4294 169.234 29.5042 168.75 29.654C168.267 29.8038 167.869 30.0169 167.558 30.2934C167.247 30.5583 167.017 30.8693 166.867 31.2265C166.729 31.5836 166.66 31.9752 166.66 32.4015C166.66 32.8277 166.758 33.2136 166.953 33.5592C167.149 33.8933 167.431 34.1582 167.8 34.3541C168.169 34.5384 168.601 34.6306 169.096 34.6306C169.845 34.6306 170.496 34.4808 171.049 34.1813C171.602 33.8818 172.028 33.5131 172.327 33.0754C172.638 32.6376 172.8 32.2229 172.811 31.8312L174.124 33.9394C173.94 34.4117 173.687 34.9013 173.364 35.4082C173.053 35.915 172.656 36.3931 172.172 36.8424C171.688 37.2801 171.106 37.643 170.427 37.931C169.747 38.2075 168.941 38.3457 168.007 38.3457C166.821 38.3457 165.744 38.1095 164.776 37.6372C163.82 37.1534 163.06 36.491 162.495 35.6501C161.942 34.7976 161.666 33.8299 161.666 32.7471C161.666 31.7679 161.85 30.8981 162.219 30.1378C162.587 29.3775 163.129 28.7382 163.843 28.2198C164.569 27.6899 165.473 27.2924 166.556 27.0275C167.639 26.751 168.894 26.6128 170.323 26.6128H173.209ZM186.652 19.3034V38.0001H181.658V19.3034H186.652ZM181.347 14.4306C181.347 13.7048 181.601 13.1058 182.108 12.6335C182.615 12.1612 183.294 11.925 184.147 11.925C184.988 11.925 185.662 12.1612 186.168 12.6335C186.687 13.1058 186.946 13.7048 186.946 14.4306C186.946 15.1563 186.687 15.7553 186.168 16.2276C185.662 16.7 184.988 16.9361 184.147 16.9361C183.294 16.9361 182.615 16.7 182.108 16.2276C181.601 15.7553 181.347 15.1563 181.347 14.4306ZM195.638 23.2951V38.0001H190.661V19.3034H195.327L195.638 23.2951ZM194.912 27.9951H193.564C193.564 26.6128 193.743 25.3686 194.1 24.2627C194.457 23.1453 194.958 22.1949 195.603 21.4116C196.248 20.6167 197.014 20.0119 197.901 19.5972C198.8 19.171 199.802 18.9578 200.908 18.9578C201.784 18.9578 202.584 19.0846 203.31 19.338C204.036 19.5914 204.658 19.9946 205.176 20.5476C205.706 21.1005 206.109 21.832 206.386 22.7421C206.674 23.6522 206.818 24.7638 206.818 26.0771V38.0001H201.807V26.0598C201.807 25.2304 201.691 24.5853 201.461 24.1245C201.231 23.6637 200.891 23.3411 200.442 23.1568C200.004 22.961 199.462 22.8631 198.817 22.8631C198.149 22.8631 197.567 22.9955 197.072 23.2605C196.588 23.5255 196.185 23.8941 195.862 24.3664C195.551 24.8272 195.315 25.3686 195.154 25.9907C194.993 26.6128 194.912 27.2809 194.912 27.9951ZM228.573 19.3034V22.8285H217.687V19.3034H228.573ZM220.382 14.6898H225.359V32.3669C225.359 32.9083 225.428 33.3231 225.566 33.6111C225.716 33.8991 225.935 34.1007 226.223 34.2158C226.511 34.3195 226.874 34.3714 227.311 34.3714C227.623 34.3714 227.899 34.3598 228.141 34.3368C228.394 34.3022 228.607 34.2677 228.78 34.2331L228.798 37.8964C228.371 38.0347 227.911 38.1441 227.415 38.2247C226.92 38.3054 226.373 38.3457 225.774 38.3457C224.679 38.3457 223.723 38.1671 222.905 37.81C222.099 37.4414 221.477 36.8539 221.039 36.0475C220.601 35.2411 220.382 34.1813 220.382 32.868V14.6898ZM240.012 38.3457C238.561 38.3457 237.259 38.1153 236.107 37.6545C234.955 37.1822 233.976 36.5313 233.169 35.7019C232.374 34.8725 231.764 33.9106 231.338 32.8162C230.911 31.7103 230.698 30.5353 230.698 29.2911V28.5999C230.698 27.183 230.9 25.887 231.303 24.712C231.706 23.537 232.282 22.5175 233.031 21.6535C233.791 20.7895 234.713 20.1271 235.796 19.6663C236.879 19.194 238.1 18.9578 239.459 18.9578C240.784 18.9578 241.959 19.1767 242.984 19.6145C244.009 20.0522 244.868 20.6743 245.559 21.4807C246.262 22.2871 246.792 23.2547 247.149 24.3837C247.506 25.5011 247.684 26.7452 247.684 28.1161V30.1897H232.824V26.872H242.794V26.4918C242.794 25.8006 242.667 25.1843 242.414 24.6429C242.172 24.0899 241.803 23.6522 241.308 23.3296C240.813 23.0071 240.179 22.8458 239.407 22.8458C238.751 22.8458 238.186 22.9898 237.714 23.2778C237.242 23.5658 236.856 23.969 236.556 24.4874C236.268 25.0058 236.049 25.6163 235.9 26.319C235.761 27.0102 235.692 27.7705 235.692 28.5999V29.2911C235.692 30.0399 235.796 30.7311 236.003 31.3647C236.222 31.9983 236.527 32.5455 236.919 33.0063C237.322 33.4671 237.806 33.8242 238.371 34.0776C238.947 34.331 239.597 34.4578 240.323 34.4578C241.222 34.4578 242.057 34.285 242.829 33.9394C243.612 33.5823 244.286 33.0466 244.85 32.3324L247.27 34.9589C246.878 35.5233 246.342 36.0648 245.663 36.5832C244.994 37.1016 244.188 37.5278 243.243 37.8619C242.299 38.1844 241.222 38.3457 240.012 38.3457ZM260.627 32.8335C260.627 32.4764 260.523 32.1538 260.316 31.8658C260.108 31.5778 259.722 31.3129 259.158 31.0709C258.605 30.8175 257.804 30.5871 256.756 30.3797C255.812 30.1724 254.93 29.9132 254.112 29.6022C253.306 29.2796 252.603 28.8937 252.004 28.4444C251.417 27.9951 250.956 27.4652 250.622 26.8547C250.288 26.2326 250.121 25.5241 250.121 24.7293C250.121 23.9459 250.288 23.2087 250.622 22.5175C250.967 21.8263 251.457 21.2157 252.091 20.6858C252.736 20.1444 253.519 19.7239 254.441 19.4244C255.374 19.1134 256.422 18.9578 257.586 18.9578C259.21 18.9578 260.604 19.217 261.767 19.7354C262.942 20.2538 263.841 20.9681 264.463 21.8781C265.096 22.7767 265.413 23.8019 265.413 24.9539H260.437C260.437 24.4701 260.333 24.0381 260.126 23.6579C259.93 23.2663 259.619 22.961 259.193 22.7421C258.778 22.5117 258.236 22.3965 257.568 22.3965C257.015 22.3965 256.537 22.4944 256.134 22.6903C255.731 22.8746 255.42 23.128 255.201 23.4506C254.994 23.7616 254.89 24.1072 254.89 24.4874C254.89 24.7754 254.948 25.0346 255.063 25.2649C255.189 25.4838 255.391 25.6854 255.668 25.8697C255.944 26.0541 256.301 26.2269 256.739 26.3881C257.188 26.5379 257.741 26.6761 258.398 26.8028C259.746 27.0793 260.949 27.4422 262.009 27.8915C263.069 28.3292 263.91 28.9283 264.532 29.6886C265.154 30.4373 265.465 31.4223 265.465 32.6434C265.465 33.4728 265.281 34.2331 264.912 34.9243C264.544 35.6155 264.014 36.2203 263.322 36.7387C262.631 37.2456 261.802 37.643 260.834 37.931C259.878 38.2075 258.801 38.3457 257.603 38.3457C255.863 38.3457 254.389 38.0347 253.179 37.4126C251.981 36.7905 251.071 36.0014 250.449 35.0453C249.838 34.0776 249.533 33.0869 249.533 32.0732H254.251C254.274 32.7528 254.446 33.3 254.769 33.7147C255.103 34.1294 255.524 34.429 256.03 34.6133C256.549 34.7976 257.107 34.8898 257.707 34.8898C258.352 34.8898 258.887 34.8034 259.314 34.6306C259.74 34.4462 260.062 34.2043 260.281 33.9048C260.512 33.5938 260.627 33.2367 260.627 32.8335ZM277.855 19.3034V22.8285H266.968V19.3034H277.855ZM269.664 14.6898H274.641V32.3669C274.641 32.9083 274.71 33.3231 274.848 33.6111C274.998 33.8991 275.217 34.1007 275.505 34.2158C275.793 34.3195 276.156 34.3714 276.593 34.3714C276.904 34.3714 277.181 34.3598 277.423 34.3368C277.676 34.3022 277.889 34.2677 278.062 34.2331L278.079 37.8964C277.653 38.0347 277.192 38.1441 276.697 38.2247C276.202 38.3054 275.654 38.3457 275.055 38.3457C273.961 38.3457 273.005 38.1671 272.187 37.81C271.381 37.4414 270.758 36.8539 270.321 36.0475C269.883 35.2411 269.664 34.1813 269.664 32.868V14.6898Z" fill="white"/>
</svg>
