<svg width="37" height="37" viewBox="0 0 37 37" fill="none" xmlns="http://www.w3.org/2000/svg">
<path d="M10.885 1.23556C10.7559 0.275474 11.9309 -0.288831 12.5996 0.412053L20.7621 8.96719C21.0611 9.28064 21.528 9.36587 21.9185 9.17831L32.5773 4.05898C33.4506 3.63957 34.3503 4.58261 33.8904 5.43518L28.2763 15.8419C28.0706 16.2232 28.1338 16.6935 28.4329 17.007L36.5954 25.5621C37.2641 26.263 36.6453 27.4101 35.6923 27.2362L24.0601 25.1127C23.6339 25.0349 23.2061 25.2404 23.0004 25.6217L17.3864 36.0284C16.9264 36.881 15.6442 36.6469 15.5152 35.6868L13.9401 23.9677C13.8824 23.5384 13.5548 23.195 13.1286 23.1172L1.49644 20.9937C0.543463 20.8198 0.369847 19.528 1.24307 19.1086L11.9019 13.9892C12.2924 13.8017 12.5177 13.384 12.46 12.9546L10.885 1.23556Z" fill="#FAE473"/>
</svg>
