<svg width="235" height="90" viewBox="0 0 235 90" fill="none" xmlns="http://www.w3.org/2000/svg">
<g clip-path="url(#clip0_6_1168)">
<path d="M36.9514 52.5107L4.40935 70.9475L0.190796 63.7787L0.352499 63.474L41.2936 40.0506L82.3568 63.545L78.2032 70.9728L45.5074 52.5107V89.7254H36.9514V52.5107Z" fill="white"/>
<path d="M78.1647 18.7208L53.421 32.9672L57.7965 40.5066L82.5402 26.2602L78.1647 18.7208Z" fill="white"/>
<path d="M4.33919 18.7205L0.00274658 26.2167L24.8489 40.4759L29.1853 32.9797L4.33919 18.7205Z" fill="white"/>
<path d="M45.5061 -0.00228882H36.9501V28.3824H45.5061V-0.00228882Z" fill="white"/>
<path d="M129.478 49.9883V71.5926H126.151V69.543C122.084 74.0828 114.809 71.9163 113.273 66.1971C111.133 58.2292 120.263 51.9147 126.151 58.1898V49.9898H129.478V49.9883ZM126.213 63.8427C126.213 61.1157 123.992 58.9066 121.252 58.9066C118.513 58.9066 116.292 61.1173 116.292 63.8427C116.292 66.5681 118.513 68.7788 121.252 68.7788C123.992 68.7788 126.213 66.5681 126.213 63.8427Z" fill="white"/>
<path d="M111.258 49.9883V53.2995H101.753V58.9761H110.467V62.2874H101.991L101.753 62.5242V68.1235H111.417V71.5926H98.346L98.1082 71.3558V50.2251L98.346 49.9883H111.258Z" fill="white"/>
<path d="M162.116 40.6828V38.6332C158.077 43.3229 150.537 40.8801 149.197 35.0109C147.403 27.141 156.125 21.3127 162.115 27.1204V25.2287H165.365L165.602 25.4656V40.4459L165.365 40.6828H162.116ZM162.216 32.9534C162.216 30.2311 159.998 28.0236 157.264 28.0236C154.529 28.0236 152.311 30.2311 152.311 32.9534C152.311 35.6756 154.529 37.8831 157.264 37.8831C159.998 37.8831 162.216 35.6756 162.216 32.9534Z" fill="white"/>
<path d="M178.753 71.5899V69.5403C174.677 74.0784 167.413 71.923 165.875 66.1943C163.732 58.2154 172.863 51.9277 178.751 58.187V56.1374H182.081V71.5914H178.753V71.5899ZM178.813 63.84C178.813 61.113 176.592 58.9023 173.853 58.9023C171.113 58.9023 168.892 61.113 168.892 63.84C168.892 66.5669 171.113 68.7776 173.853 68.7776C176.592 68.7776 178.813 66.5669 178.813 63.84Z" fill="white"/>
<path d="M114.586 34.3739C115.069 38.4051 121.266 39.272 123.389 36.0982C124.267 36.515 125.098 37.0219 125.948 37.4925C126.091 37.5714 126.213 37.4356 126.132 37.7419C125.911 38.5662 124.085 39.9242 123.304 40.2921C118.988 42.3227 113.032 40.6079 111.41 35.8787C109.089 29.1109 115.264 22.7901 122.031 25.3086C124.199 26.1171 126.943 29.2483 126.943 31.6153V34.1386L126.706 34.3754H114.586V34.3739ZM123.459 31.6927C123.085 27.2493 116.812 26.5024 114.874 30.3236C114.717 30.6331 114.31 31.4937 114.665 31.6927H123.459Z" fill="white"/>
<path d="M218.364 63.8318C218.364 68.3558 214.68 72.0223 210.135 72.0223C205.59 72.0223 201.905 68.3558 201.905 63.8318C201.905 59.3079 205.59 55.6414 210.135 55.6414C214.68 55.6414 218.364 59.3079 218.364 63.8318ZM215.013 63.8366C215.013 61.1522 212.827 58.9763 210.13 58.9763C207.433 58.9763 205.247 61.1522 205.247 63.8366C205.247 66.5209 207.433 68.6968 210.13 68.6968C212.827 68.6968 215.013 66.5209 215.013 63.8366Z" fill="white"/>
<path d="M136.133 56.1346V65.9909C136.133 66.1015 136.534 67.2194 136.632 67.3868C137.682 69.1995 141.111 69.2216 142.471 67.7247C142.958 67.1894 143.581 65.7399 143.581 65.0451V56.1362H146.908V71.5902H143.581V69.6985C141.182 73.046 135.153 72.675 133.411 68.8616C133.3 68.62 132.807 67.2415 132.807 67.0962V56.1362H136.134L136.133 56.1346Z" fill="white"/>
<path d="M234.999 71.5931H231.671V61.8946C231.671 61.7383 231.359 60.7814 231.259 60.5698C230.107 58.1255 226.161 58.3402 224.826 60.5998C224.653 60.8935 224.225 62.0936 224.225 62.3668V71.5915H220.898V56.1375H224.225V57.8728C226.708 54.7005 232.478 54.9705 234.282 58.6639C234.431 58.9702 234.999 60.5635 234.999 60.7893V71.5915V71.5931Z" fill="white"/>
<path d="M112.368 19.0778V22.3891H106.426L106.188 22.6259V40.6822H102.781L102.543 40.4453V22.3891H96.5238V19.0778H112.368Z" fill="white"/>
<path d="M156.857 55.7097C158.761 55.5629 160.983 56.0556 162.51 57.243C162.951 57.5856 164.433 59.0605 164.474 59.5563C164.509 59.9605 162.153 61.0216 161.732 61.3374C158.634 56.5198 151.436 59.6668 153.003 65.285C153.881 68.4352 157.809 69.6763 160.425 67.7783C161.021 67.3457 161.334 66.744 161.874 66.3793L164.636 68.0404C159.92 75.3751 148.622 71.8285 149.445 62.8407C149.797 58.9894 153.023 56.0066 156.857 55.7113V55.7097Z" fill="white"/>
<path d="M137.406 29.641C136.946 27.3372 131.759 27.1572 132.366 29.8431C132.661 31.149 136.328 31.6527 137.51 32.1359C139.861 33.096 140.868 34.5471 140.572 37.132C139.972 42.3649 129.588 42.2528 128.222 37.3815L131.221 35.7914C131.488 38.0794 135.812 38.7836 136.927 37.1336C138.496 34.8092 133.236 34.1634 131.908 33.6123C130.53 33.0423 129.154 32.0396 128.884 30.4716C127.784 24.0544 137.804 22.9286 140.251 27.9736L137.406 29.641Z" fill="white"/>
<path d="M190.162 51.8763V56.1334H193.965V59.2867H190.162V67.4077C190.162 67.8214 191.094 68.5904 191.508 68.5904H193.964V71.5858C191.882 71.8621 188.878 71.9363 187.558 69.9989C187.366 69.7178 186.835 68.4546 186.835 68.1956V59.522L186.597 59.2851H183.983V56.1318H186.597L186.835 55.8949V52.6626L190.162 51.8747V51.8763Z" fill="white"/>
<path d="M146.431 18.1284H143.104V40.6786H146.431V18.1284Z" fill="white"/>
<path d="M199.509 56.1346H196.181V71.5886H199.509V56.1346Z" fill="white"/>
<path d="M197.872 53.8085C199.063 53.8085 200.029 52.8471 200.029 51.6611C200.029 50.475 199.063 49.5136 197.872 49.5136C196.68 49.5136 195.714 50.475 195.714 51.6611C195.714 52.8471 196.68 53.8085 197.872 53.8085Z" fill="white"/>
</g>
<defs>
<clipPath id="clip0_6_1168">
<rect width="235" height="89.7271" fill="white"/>
</clipPath>
</defs>
</svg>
